<?xml version="1.0" encoding="utf-8"?>
<!-- Generator: Adobe Illustrator 28.0.0, SVG Export Plug-In . SVG Version: 6.00 Build 0)  -->
<svg version="1.1" id="Layer_1" xmlns="http://www.w3.org/2000/svg" xmlns:xlink="http://www.w3.org/1999/xlink" x="0px" y="0px"
	 viewBox="0 0 1000 792" style="enable-background:new 0 0 1000 792;" xml:space="preserve">
<style type="text/css">
	.st0{fill:#7A121C;}
	.st1{fill:none;stroke:#7A121B;stroke-width:11;stroke-miterlimit:10;}
	.st2{fill:none;stroke:#FFCD34;stroke-width:4;stroke-miterlimit:10;}
</style>
<g>
	<g>
		<path class="st0" d="M75.02,368.64v-4.96H61.68v49.76h13.33v-14.26h-7.75v-21.7l29.45-0.16v45.27l-13.49,12.56H54.09l-14.11-11.63
			v-67.74l14.11-13.8h29.14l13.49,13.49v13.18H75.02z"/>
		<path class="st1" d="M75.02,368.64v-4.96H61.68v49.76h13.33v-14.26h-7.75v-21.7l29.45-0.16v45.27l-13.49,12.56H54.09l-14.11-11.63
			v-67.74l14.11-13.8h29.14l13.49,13.49v13.18H75.02z"/>
		<path class="st2" d="M75.02,368.64v-4.96H61.68v49.76h13.33v-14.26h-7.75v-21.7l29.45-0.16v45.27l-13.49,12.56H54.09l-14.11-11.63
			v-67.74l14.11-13.8h29.14l13.49,13.49v13.18H75.02z"/>
	</g>
	<g>
		<path class="st0" d="M166.01,355.47v67.12l-13.49,12.56h-29.14l-14.11-11.63v-67.74l14.11-13.8h29.14L166.01,355.47z
			 M144.31,363.68h-13.33v49.76h13.33V363.68z"/>
		<path class="st1" d="M166.01,355.47v67.12l-13.49,12.56h-29.14l-14.11-11.63v-67.74l14.11-13.8h29.14L166.01,355.47z
			 M144.31,363.68h-13.33v49.76h13.33V363.68z"/>
		<path class="st2" d="M166.01,355.47v67.12l-13.49,12.56h-29.14l-14.11-11.63v-67.74l14.11-13.8h29.14L166.01,355.47z
			 M144.31,363.68h-13.33v49.76h13.33V363.68z"/>
	</g>
	<g>
		<path class="st0" d="M243.52,354.85v30.07l-16.82,14.57h-18.22v13.95h6.82v21.7h-35.03v-21.7h6.51v-0.16v-49.61h-6.98v-21.7h46.97
			L243.52,354.85z M221.82,363.68h-13.33v14.11h13.33V363.68z"/>
		<path class="st1" d="M243.52,354.85v30.07l-16.82,14.57h-18.22v13.95h6.82v21.7h-35.03v-21.7h6.51v-0.16v-49.61h-6.98v-21.7h46.97
			L243.52,354.85z M221.82,363.68h-13.33v14.11h13.33V363.68z"/>
		<path class="st2" d="M243.52,354.85v30.07l-16.82,14.57h-18.22v13.95h6.82v21.7h-35.03v-21.7h6.51v-0.16v-49.61h-6.98v-21.7h46.97
			L243.52,354.85z M221.82,363.68h-13.33v14.11h13.33V363.68z"/>
	</g>
	<g>
		<path class="st0" d="M322.89,363.61v49.92h6.67v21.7h-35.03v-21.7h6.67v-14.11h-17.83v14.11h6.67v21.7h-35.03v-21.7h6.67v-49.92
			h-6.67v-21.7h35.03v21.7h-6.67v14.11h17.83v-14.11h-6.67v-21.7h35.03v21.7H322.89z"/>
		<path class="st1" d="M322.89,363.61v49.92h6.67v21.7h-35.03v-21.7h6.67v-14.11h-17.83v14.11h6.67v21.7h-35.03v-21.7h6.67v-49.92
			h-6.67v-21.7h35.03v21.7h-6.67v14.11h17.83v-14.11h-6.67v-21.7h35.03v21.7H322.89z"/>
		<path class="st2" d="M322.89,363.61v49.92h6.67v21.7h-35.03v-21.7h6.67v-14.11h-17.83v14.11h6.67v21.7h-35.03v-21.7h6.67v-49.92
			h-6.67v-21.7h35.03v21.7h-6.67v14.11h17.83v-14.11h-6.67v-21.7h35.03v21.7H322.89z"/>
	</g>
	<g>
		<path class="st0" d="M406.45,341.98v28.52h-21.7v-6.82h-13.18v14.11h23.56v21.7c-3,0-5.35,0-7.05,0c-1.7,0-3.31-0.02-4.81-0.08
			c-1.5-0.05-3.1-0.08-4.81-0.08c-1.71,0-4.01,0-6.9,0v14.11h13.18v-6.82h21.7v28.52h-63.71v-21.7h7.13v-49.76h-7.13v-21.7H406.45z"
			/>
		<path class="st1" d="M406.45,341.98v28.52h-21.7v-6.82h-13.18v14.11h23.56v21.7c-3,0-5.35,0-7.05,0c-1.7,0-3.31-0.02-4.81-0.08
			c-1.5-0.05-3.1-0.08-4.81-0.08c-1.71,0-4.01,0-6.9,0v14.11h13.18v-6.82h21.7v28.52h-63.71v-21.7h7.13v-49.76h-7.13v-21.7H406.45z"
			/>
		<path class="st2" d="M406.45,341.98v28.52h-21.7v-6.82h-13.18v14.11h23.56v21.7c-3,0-5.35,0-7.05,0c-1.7,0-3.31-0.02-4.81-0.08
			c-1.5-0.05-3.1-0.08-4.81-0.08c-1.71,0-4.01,0-6.9,0v14.11h13.18v-6.82h21.7v28.52h-63.71v-21.7h7.13v-49.76h-7.13v-21.7H406.45z"
			/>
	</g>
	<g>
		<path class="st0" d="M449.7,399.49v35.65h-28.83v-21.7h7.13v-49.76h-7.13v-21.7h46.86l16.7,12.87v23.1l-13.02,11.01l13.02,10.54
			v13.95l7.44,0.16v21.55h-29.14v-35.65H449.7z M449.7,363.68v14.11h13.02v-14.11H449.7z"/>
		<path class="st1" d="M449.7,399.49v35.65h-28.83v-21.7h7.13v-49.76h-7.13v-21.7h46.86l16.7,12.87v23.1l-13.02,11.01l13.02,10.54
			v13.95l7.44,0.16v21.55h-29.14v-35.65H449.7z M449.7,363.68v14.11h13.02v-14.11H449.7z"/>
		<path class="st2" d="M449.7,399.49v35.65h-28.83v-21.7h7.13v-49.76h-7.13v-21.7h46.86l16.7,12.87v23.1l-13.02,11.01l13.02,10.54
			v13.95l7.44,0.16v21.55h-29.14v-35.65H449.7z M449.7,363.68v14.11h13.02v-14.11H449.7z"/>
	</g>
	<g>
		<path class="st0" d="M653.39,363.61l-7.6,49.92h5.43v21.7h-43.25l-8.37-37.36l-8.37,37.36h-43.25v-21.7h5.43l-7.6-49.92h-7.75
			v-21.7h35.03v21.7h-5.12l6.51,42.32l10.54-42.32h-7.13v-21.7h43.25v21.7h-6.98l10.54,42.32l6.51-42.32h-5.12v-21.7h35.03v21.7
			H653.39z"/>
		<path class="st1" d="M653.39,363.61l-7.6,49.92h5.43v21.7h-43.25l-8.37-37.36l-8.37,37.36h-43.25v-21.7h5.43l-7.6-49.92h-7.75
			v-21.7h35.03v21.7h-5.12l6.51,42.32l10.54-42.32h-7.13v-21.7h43.25v21.7h-6.98l10.54,42.32l6.51-42.32h-5.12v-21.7h35.03v21.7
			H653.39z"/>
		<path class="st2" d="M653.39,363.61l-7.6,49.92h5.43v21.7h-43.25l-8.37-37.36l-8.37,37.36h-43.25v-21.7h5.43l-7.6-49.92h-7.75
			v-21.7h35.03v21.7h-5.12l6.51,42.32l10.54-42.32h-7.13v-21.7h43.25v21.7h-6.98l10.54,42.32l6.51-42.32h-5.12v-21.7h35.03v21.7
			H653.39z"/>
	</g>
	<g>
		<path class="st0" d="M738.34,413.52v21.7h-35.04v-21.7h5.12l-1.24-7.44h-13.02l-1.24,7.44h5.43v21.7h-35.03v-21.7h7.75l7.75-49.92
			h-5.89v-21.7h55.5v21.7h-5.89l7.6,49.92H738.34z M705.01,391.67l-4.19-28.06l-4.34,28.06H705.01z"/>
		<path class="st1" d="M738.34,413.52v21.7h-35.04v-21.7h5.12l-1.24-7.44h-13.02l-1.24,7.44h5.43v21.7h-35.03v-21.7h7.75l7.75-49.92
			h-5.89v-21.7h55.5v21.7h-5.89l7.6,49.92H738.34z M705.01,391.67l-4.19-28.06l-4.34,28.06H705.01z"/>
		<path class="st2" d="M738.34,413.52v21.7h-35.04v-21.7h5.12l-1.24-7.44h-13.02l-1.24,7.44h5.43v21.7h-35.03v-21.7h7.75l7.75-49.92
			h-5.89v-21.7h55.5v21.7h-5.89l7.6,49.92H738.34z M705.01,391.67l-4.19-28.06l-4.34,28.06H705.01z"/>
	</g>
	<g>
		<path class="st0" d="M740.82,341.9h63.4v32.55h-15.81v-10.85h-5.12v49.92h6.67v21.7h-35.04v-21.7h6.67v-49.92h-4.81v10.85h-15.97
			V341.9z"/>
		<path class="st1" d="M740.82,341.9h63.4v32.55h-15.81v-10.85h-5.12v49.92h6.67v21.7h-35.04v-21.7h6.67v-49.92h-4.81v10.85h-15.97
			V341.9z"/>
		<path class="st2" d="M740.82,341.9h63.4v32.55h-15.81v-10.85h-5.12v49.92h6.67v21.7h-35.04v-21.7h6.67v-49.92h-4.81v10.85h-15.97
			V341.9z"/>
	</g>
	<g>
		<path class="st0" d="M871.97,399.18v23.41l-13.49,12.56h-29.14l-14.11-11.63v-67.74l14.11-13.8h29.14l13.49,13.49v22.17h-21.7
			v-13.95h-13.33v49.76h13.33v-14.26H871.97z"/>
		<path class="st1" d="M871.97,399.18v23.41l-13.49,12.56h-29.14l-14.11-11.63v-67.74l14.11-13.8h29.14l13.49,13.49v22.17h-21.7
			v-13.95h-13.33v49.76h13.33v-14.26H871.97z"/>
		<path class="st2" d="M871.97,399.18v23.41l-13.49,12.56h-29.14l-14.11-11.63v-67.74l14.11-13.8h29.14l13.49,13.49v22.17h-21.7
			v-13.95h-13.33v49.76h13.33v-14.26H871.97z"/>
	</g>
	<g>
		<path class="st0" d="M953.35,363.61v49.92h6.67v21.7h-35.04v-21.7h6.67v-14.11h-17.83v14.11h6.67v21.7h-35.03v-21.7h6.67v-49.92
			h-6.67v-21.7h35.03v21.7h-6.67v14.11h17.83v-14.11h-6.67v-21.7h35.04v21.7H953.35z"/>
		<path class="st1" d="M953.35,363.61v49.92h6.67v21.7h-35.04v-21.7h6.67v-14.11h-17.83v14.11h6.67v21.7h-35.03v-21.7h6.67v-49.92
			h-6.67v-21.7h35.03v21.7h-6.67v14.11h17.83v-14.11h-6.67v-21.7h35.04v21.7H953.35z"/>
		<path class="st2" d="M953.35,363.61v49.92h6.67v21.7h-35.04v-21.7h6.67v-14.11h-17.83v14.11h6.67v21.7h-35.03v-21.7h6.67v-49.92
			h-6.67v-21.7h35.03v21.7h-6.67v14.11h17.83v-14.11h-6.67v-21.7h35.04v21.7H953.35z"/>
	</g>
</g>
</svg>
