<?xml version="1.0" encoding="UTF-8"?>
<svg id="Layer_2" data-name="Layer 2" xmlns="http://www.w3.org/2000/svg" viewBox="0 0 518.88 559.66">
  <defs>
    <style>
      .cls-1 {
        stroke-width: 2px;
      }

      .cls-1, .cls-2 {
        stroke: #000;
        stroke-miterlimit: 1;
      }

      .cls-2 {
        fill: none;
        stroke-width: 9px;
      }
    </style>
  </defs>
  <polygon class="cls-2" points="260.73 262.53 514.42 114.81 477.07 387.43 259.65 556.09 260.73 262.53"/>
  <g>
    <path class="cls-1" d="m298.32,403.35c-.09.06-.18.12-.27.16s-.17.07-.25.09-.15.03-.22.02-.14-.02-.2-.05c-.06-.02-.12-.06-.17-.1s-.09-.1-.12-.16-.05-.14-.07-.22-.02-.18-.02-.28l.52-19.45c0-.1.01-.21.03-.32s.05-.22.08-.33.08-.22.13-.34.11-.23.18-.35c.07-.12.14-.23.21-.33s.15-.2.23-.29.17-.18.25-.25.18-.15.27-.21l4.25-2.88c.26-.18.53-.35.79-.51s.53-.32.8-.46.54-.28.81-.41.54-.25.82-.36c.27-.11.54-.21.8-.28s.51-.13.76-.16.49-.05.72-.04.46.03.68.08c.22.05.43.13.63.23s.39.24.56.4.34.35.49.56.3.46.43.73c.13.27.24.58.33.93s.17.74.22,1.17.09.9.11,1.41.01,1.06,0,1.64-.06,1.16-.11,1.71-.13,1.09-.21,1.62-.19,1.03-.31,1.52-.26.97-.41,1.43c-.16.46-.32.91-.5,1.34s-.36.85-.55,1.26-.39.8-.6,1.18-.43.74-.65,1.09c-.23.35-.46.69-.7,1.02s-.49.65-.74.95-.51.6-.78.89-.54.56-.82.82c-.28.26-.56.52-.83.76s-.55.47-.82.7-.54.43-.8.63-.53.39-.79.57l-4.19,2.9m5.21-37.04l-15.67,10.5c-.1.07-.19.14-.28.22s-.18.16-.26.26-.16.19-.24.3-.15.22-.22.34c-.07.12-.13.24-.18.35s-.1.23-.13.34-.06.23-.08.34-.03.22-.03.33l-.84,42.5c0,.1,0,.19.02.27s.04.15.07.22.07.12.12.16.1.08.17.1c.07.02.13.04.21.04s.15,0,.23-.03.16-.05.25-.1.18-.1.27-.16l15.25-10.67c.72-.5,1.42-1.02,2.11-1.56s1.36-1.09,2.02-1.67,1.3-1.16,1.92-1.77,1.24-1.23,1.83-1.87c.59-.64,1.17-1.3,1.74-1.97s1.11-1.36,1.65-2.06,1.05-1.42,1.55-2.16.99-1.49,1.46-2.26c.51-.84.99-1.69,1.44-2.54s.88-1.71,1.27-2.57.76-1.73,1.1-2.6.65-1.74.93-2.62c.28-.88.53-1.76.75-2.64s.41-1.76.57-2.64.29-1.76.39-2.64.17-1.76.2-2.65.04-1.72.01-2.52-.09-1.55-.18-2.26-.22-1.38-.38-2.01-.35-1.21-.58-1.75-.48-1.04-.77-1.5-.61-.87-.96-1.23-.74-.69-1.15-.97-.86-.51-1.34-.7c-.89-.34-1.85-.52-2.89-.53s-2.15.14-3.33.46-2.45.81-3.78,1.46-2.75,1.48-4.23,2.48"/>
    <path class="cls-1" d="m363.51,326.19l-7.9,5.29c-.09.06-.17.12-.25.2s-.16.15-.24.24-.15.18-.22.28-.14.21-.21.32c-.07.11-.12.23-.17.34s-.09.22-.13.33-.06.22-.09.32-.03.21-.04.32l-1.49,24.97c-.02.39-.06.78-.11,1.16s-.11.75-.18,1.11-.16.72-.26,1.07-.21.69-.34,1.02c-.12.33-.25.65-.39.96s-.27.61-.42.91-.29.58-.45.85-.32.54-.48.79c-.16.25-.33.5-.5.74s-.34.47-.52.69-.36.43-.54.64-.37.4-.56.59c-.19.19-.37.36-.55.53s-.35.32-.52.47-.33.28-.49.41-.31.24-.46.34-.3.2-.46.3-.32.18-.48.27-.33.17-.51.24-.35.15-.53.22c-.18.07-.36.12-.53.16s-.35.07-.52.09-.33.02-.5.02-.32-.03-.48-.06c-.15-.03-.3-.09-.44-.16s-.27-.16-.4-.27-.25-.23-.36-.38-.22-.31-.31-.49c-.1-.18-.18-.39-.25-.62s-.12-.5-.16-.78-.06-.6-.07-.95,0-.71.02-1.11l1.31-25.06c0-.11,0-.2,0-.29s-.03-.16-.06-.23-.06-.13-.1-.18-.09-.09-.15-.12c-.06-.03-.12-.05-.19-.06s-.14,0-.21,0-.15.04-.23.08-.17.09-.26.15l-8.16,5.46c-.09.06-.18.13-.26.2s-.17.16-.25.24-.15.18-.23.29-.14.21-.21.33c-.07.12-.13.23-.18.34s-.09.22-.13.34-.06.22-.08.33-.03.21-.04.32l-1.15,25.14c-.03.72-.04,1.41-.02,2.06s.07,1.27.14,1.85.17,1.13.3,1.64.28.99.45,1.43c.18.44.38.85.6,1.22s.46.7.73,1,.55.56.86.78.64.41.99.56c.35.15.72.27,1.11.35s.8.12,1.23.13.88-.03,1.34-.09.95-.17,1.46-.31c.5-.14,1.02-.31,1.56-.52s1.08-.46,1.65-.75,1.14-.61,1.74-.98,1.2-.76,1.83-1.2,1.23-.89,1.83-1.36,1.18-.96,1.75-1.47,1.13-1.03,1.68-1.57,1.08-1.1,1.6-1.68c.52-.58,1.02-1.16,1.51-1.76s.95-1.2,1.41-1.82.89-1.24,1.3-1.88.82-1.28,1.2-1.94c.38-.66.75-1.32,1.09-1.99s.67-1.35.98-2.03.59-1.38.86-2.08.52-1.41.75-2.12c.23-.71.43-1.42.62-2.14s.34-1.43.48-2.14.25-1.43.35-2.14.16-1.43.21-2.15l1.63-24.89c0-.1,0-.2,0-.29s-.03-.16-.05-.23-.06-.13-.1-.18-.09-.09-.14-.13c-.06-.03-.11-.05-.18-.06s-.13,0-.2,0-.15.04-.23.07-.16.08-.25.14"/>
    <path class="cls-1" d="m412.24,293.55l-6.82,4.57c-.08.05-.16.12-.25.19s-.17.15-.26.24-.18.19-.27.29-.18.22-.28.34c-.1.12-.19.24-.27.36s-.17.24-.24.36-.15.24-.21.35-.13.23-.18.34l-10.96,23.66c-.05.11-.1.21-.15.31s-.11.18-.16.26-.12.15-.18.21-.13.11-.19.16-.13.08-.19.1-.12.03-.17.03-.11-.01-.16-.04-.1-.06-.14-.11l-8.31-10.75c-.04-.05-.08-.1-.13-.14s-.1-.07-.17-.1-.13-.05-.21-.06-.16-.02-.25-.02c-.09,0-.17,0-.26.02s-.17.03-.26.06-.17.06-.26.11-.17.09-.25.15l-7.14,4.78c-.08.06-.17.12-.25.19s-.16.15-.23.23-.15.18-.22.28-.14.21-.2.32c-.06.11-.12.23-.17.34s-.09.22-.13.33-.06.21-.09.32-.04.21-.04.31l-2.9,41.45c0,.1,0,.19,0,.27s.02.15.05.22.05.12.09.16.08.08.14.11c.05.03.11.05.17.05s.13,0,.19-.01.14-.04.22-.08.16-.08.24-.14l7.51-5.25c.08-.06.16-.12.24-.19s.15-.15.23-.23.14-.17.21-.27.13-.2.19-.31c.06-.11.12-.22.17-.32s.09-.21.13-.32.06-.21.08-.31.04-.2.04-.3l1.45-19.23c0-.1.02-.2.05-.29s.06-.18.1-.26.09-.16.15-.23.13-.14.2-.2c0,0,.01-.01.02-.02s.01-.01.02-.02.01-.01.02-.02.01,0,.02-.01c.07-.04.13-.08.18-.1s.11-.03.16-.03.09.01.13.04.08.06.11.1l7.08,10.42s.09.08.14.1.11.02.18.01.14-.03.22-.07.16-.09.25-.15.17-.13.25-.2.15-.15.22-.24.13-.18.19-.27.11-.2.16-.31l9.59-21.84c.05-.1.1-.2.16-.28s.11-.17.17-.24.12-.14.18-.2.12-.11.19-.15c0,0,.01,0,.02-.01s.01,0,.02-.01.01,0,.02-.01.01,0,.02-.01c.07-.04.13-.06.19-.07s.09,0,.13.04.05.08.06.14.01.15,0,.25l-1.67,19.11c0,.1,0,.19,0,.27s.02.15.04.22.05.12.08.16.08.08.13.11c.05.03.1.05.16.06s.12,0,.18,0,.13-.04.21-.07.15-.08.23-.14l7.19-5.03c.08-.05.15-.12.23-.18s.15-.14.22-.22.14-.17.2-.26.13-.19.19-.3c.06-.11.12-.21.16-.32s.09-.21.13-.31.06-.2.09-.3.04-.2.05-.3l3.78-40.93c0-.1.01-.2,0-.28s-.02-.16-.04-.23-.05-.13-.08-.18-.08-.09-.13-.13c-.05-.03-.1-.06-.16-.07s-.12-.01-.18,0-.13.03-.21.06-.15.08-.23.13"/>
    <path class="cls-1" d="m429.48,301.57c-.08.05-.15.1-.22.13s-.14.05-.2.06-.12.01-.18,0-.11-.03-.16-.06c-.05-.03-.09-.07-.12-.12s-.06-.1-.08-.17-.03-.14-.03-.22,0-.17,0-.27l.72-7.04c.01-.1.03-.2.05-.3s.05-.2.09-.31.08-.21.13-.31.11-.21.17-.32c.06-.11.13-.21.19-.3s.14-.18.21-.26.14-.15.22-.22.15-.13.23-.18l4.43-3c.16-.11.32-.21.47-.3s.3-.16.44-.22.27-.11.4-.14.25-.06.37-.06c.12-.01.23-.01.34,0s.21.02.3.05.18.06.27.1.16.1.24.16c.07.06.14.13.2.21s.12.16.17.26.09.19.13.3.07.23.1.35c.03.12.05.25.06.39s.03.27.03.41,0,.29,0,.44-.02.3-.03.46c-.03.31-.08.62-.15.93s-.15.63-.24.95-.21.64-.34.97-.27.66-.44.99-.34.65-.53.95-.41.59-.63.85-.47.52-.73.75-.54.45-.84.66l-5.02,3.43m7.24-24.47l-14.53,9.73c-.08.05-.16.11-.23.18s-.15.14-.22.22-.14.17-.21.26-.13.2-.2.31c-.06.11-.12.22-.17.32s-.09.21-.13.32-.07.21-.09.32-.04.21-.05.31l-3.95,40.88c0,.1-.01.19,0,.27s.02.15.04.22.05.12.08.16.07.08.12.11c.05.03.1.05.15.06s.11,0,.18,0,.13-.04.2-.07.14-.08.22-.13l7.01-4.91c.08-.05.15-.11.23-.18s.14-.14.21-.22.14-.17.2-.26.13-.19.19-.3c.06-.11.12-.21.16-.31s.09-.21.13-.31.06-.2.09-.3.04-.2.05-.3l.89-8.72c0-.1.03-.19.05-.29s.05-.2.09-.3.08-.21.13-.31.1-.21.17-.32.12-.2.19-.3.13-.18.2-.26.14-.15.22-.22.15-.13.23-.18l4.05-2.8c.56-.39,1.11-.79,1.65-1.21s1.05-.84,1.55-1.28.99-.89,1.46-1.36.93-.94,1.36-1.43c.44-.49.86-.99,1.27-1.49s.8-1.01,1.18-1.53.74-1.04,1.09-1.56.68-1.06,1-1.6c.32-.54.62-1.08.9-1.63s.55-1.1.81-1.65.49-1.12.71-1.68.43-1.13.62-1.71c.19-.57.37-1.14.52-1.71s.3-1.13.43-1.7.24-1.13.33-1.68.17-1.12.23-1.67.1-1.09.12-1.6.02-1,0-1.47-.07-.91-.14-1.34-.15-.82-.26-1.2c-.11-.38-.24-.73-.38-1.06s-.3-.64-.48-.92-.37-.54-.57-.77-.43-.44-.67-.62-.5-.34-.77-.47-.56-.23-.86-.29-.62-.11-.95-.12-.68,0-1.04.05c-.36.05-.73.12-1.11.23s-.77.25-1.17.41-.81.37-1.23.6-.85.49-1.29.79"/>
    <path class="cls-1" d="m465.02,257.59c-.36.24-.72.5-1.09.77s-.74.56-1.12.86-.76.62-1.15.95-.78.68-1.18,1.05c-.4.36-.79.74-1.17,1.13s-.76.8-1.14,1.22-.74.86-1.1,1.31-.71.91-1.06,1.39c-.35.48-.68.97-1,1.48s-.64,1.03-.94,1.56-.59,1.08-.87,1.64-.55,1.14-.8,1.73c-.26.59-.49,1.19-.7,1.81s-.4,1.24-.57,1.88-.31,1.29-.43,1.95-.22,1.34-.3,2.02c-.05.47-.09.91-.11,1.33s-.03.81-.02,1.18.03.71.07,1.03.1.61.17.88c.07.27.15.52.24.75s.19.44.31.64.23.37.37.53.28.3.43.42c.15.12.31.23.48.32s.34.17.52.23.37.11.57.14.4.05.61.05c.21,0,.42,0,.64-.02s.43-.04.64-.06.43-.06.65-.11.44-.09.65-.15c.22-.06.44-.12.66-.18s.43-.14.65-.21.43-.16.65-.25.43-.18.64-.28c.21-.1.42-.19.62-.28s.39-.18.58-.26.36-.17.54-.25.34-.16.5-.23c.16-.07.33-.14.49-.21s.33-.15.49-.22.32-.15.48-.23.32-.16.48-.24c.16-.08.31-.16.46-.23s.29-.14.43-.19.27-.11.4-.16.25-.09.36-.12c.12-.04.22-.06.33-.08s.2-.03.29-.04.17,0,.25,0,.15.02.21.04c.06.02.12.06.16.11s.08.11.1.18.04.16.04.26,0,.21-.02.34c-.03.24-.08.48-.15.73s-.16.48-.26.72-.23.48-.38.72-.31.48-.49.71c-.18.24-.39.47-.6.71s-.46.47-.71.7-.53.46-.81.69-.6.45-.92.68-.68.45-1.03.65-.7.37-1.05.53-.71.29-1.08.41-.73.22-1.1.3c-.37.08-.74.14-1.11.18s-.74.07-1.1.08-.73,0-1.1-.03-.73-.07-1.1-.14c-.04,0-.08,0-.12,0s-.09.02-.13.03-.09.04-.14.06-.1.05-.15.09c-.02.01-.04.03-.06.04s-.04.03-.06.05-.04.03-.06.05-.04.04-.06.06c-.08.07-.15.15-.22.23s-.14.17-.21.26-.13.19-.19.29-.12.2-.17.31l-4.21,8.89c-.05.11-.1.21-.14.32s-.08.21-.11.31-.05.2-.07.3-.03.2-.03.29c0,.1,0,.18,0,.26s.03.14.05.2.06.1.1.14.09.06.14.08c.18.08.38.15.57.21s.4.12.6.17.42.09.63.13.44.06.67.09c.23.02.46.04.7.04s.48,0,.73-.02.51-.05.77-.08.53-.09.8-.15c.27-.06.55-.13.84-.21s.58-.18.87-.28.6-.22.91-.35.63-.27.95-.42c.32-.15.65-.32.99-.5s.68-.38,1.03-.58.71-.43,1.08-.67.74-.49,1.12-.76c.47-.33.93-.67,1.38-1.01s.89-.7,1.33-1.06.86-.73,1.27-1.11.82-.77,1.22-1.16c.4-.4.78-.8,1.16-1.21s.74-.83,1.09-1.26.69-.86,1.02-1.3.64-.89.95-1.35c.31-.46.6-.92.88-1.4s.55-.95.8-1.44.5-.99.73-1.49.45-1.02.65-1.54c.21-.52.39-1.06.57-1.59s.33-1.08.47-1.63.26-1.11.37-1.67.2-1.14.27-1.72c.08-.62.13-1.19.16-1.73s.03-1.03,0-1.48-.08-.86-.16-1.23-.19-.7-.32-.98c-.13-.29-.28-.55-.44-.78s-.33-.44-.52-.62-.39-.33-.6-.46-.44-.23-.68-.3c-.24-.07-.49-.12-.75-.16s-.52-.05-.79-.04-.55.03-.84.07-.58.11-.88.19c-.3.08-.6.17-.88.26s-.57.19-.85.28-.55.2-.82.31-.53.22-.79.33c-.05.03-.12.06-.2.1s-.18.09-.3.14-.25.11-.39.18-.31.14-.49.22c-.18.08-.36.16-.55.24s-.37.15-.55.22-.37.14-.56.2-.38.13-.57.19c-.19.06-.38.11-.56.15s-.35.08-.52.1-.33.05-.49.06-.31.02-.45.01c-.14,0-.27-.02-.37-.05s-.19-.09-.25-.16-.11-.16-.13-.26-.03-.23-.01-.37.04-.28.07-.41.07-.27.11-.4.1-.26.16-.39.13-.25.2-.38c.07-.12.15-.24.23-.36s.16-.23.25-.34.18-.22.27-.33.19-.21.29-.31c.1-.1.2-.2.31-.29s.21-.19.31-.28.21-.18.32-.26.21-.16.32-.24c.11-.08.21-.15.32-.23s.2-.14.3-.21.19-.13.28-.19.17-.12.26-.18c.28-.19.56-.36.84-.52s.57-.31.87-.45.59-.26.89-.37.61-.21.92-.3c.31-.09.62-.16.94-.21s.64-.08.96-.09.65,0,.98.02.66.07,1,.13c.04.01.08.02.12.02s.09,0,.13-.01.09-.03.14-.05.1-.05.15-.09c.02-.01.04-.02.05-.04s.04-.03.06-.04.04-.03.06-.05.04-.03.06-.05c.08-.07.15-.14.22-.22s.14-.16.2-.25.13-.18.19-.28.12-.2.17-.31l4.26-8.92c.05-.11.1-.22.15-.32s.08-.21.11-.31.05-.2.07-.3.03-.19.03-.29c0-.09,0-.18,0-.26s-.02-.15-.05-.21-.05-.12-.09-.16-.08-.08-.13-.11c-.39-.17-.79-.3-1.19-.41s-.82-.18-1.25-.22-.86-.05-1.31-.03-.9.08-1.36.16c-.46.09-.95.21-1.45.38s-1.03.38-1.58.63-1.11.55-1.7.89-1.2.72-1.83,1.14"/>
  </g>
  <polygon class="cls-2" points="4.46 109.57 258.88 4.16 514.42 109.81 260.73 257.53 4.46 109.57"/>
  <g>
    <path class="cls-1" d="m166.18,75.66c-.09-.04-.16-.09-.22-.13s-.11-.09-.15-.14-.07-.1-.08-.16-.02-.11-.01-.17c0-.06.03-.11.06-.17s.07-.11.12-.15.11-.1.19-.14.16-.09.25-.13l17.87-7.71c.09-.04.19-.08.29-.11s.21-.06.32-.08.22-.04.34-.05.24-.02.37-.02.25,0,.36.02.23.03.33.05.21.05.3.08.19.07.27.11l3.87,1.83c.24.11.48.23.7.35s.45.25.67.38.43.27.63.41.4.29.59.43c.19.15.36.3.51.46s.28.32.39.48.2.33.27.51.12.35.15.53.03.37,0,.55-.08.38-.17.58-.2.4-.34.6-.31.41-.51.62c-.2.21-.44.43-.73.64s-.61.44-.98.66-.78.45-1.24.68-.95.47-1.49.7-1.07.46-1.6.66-1.04.38-1.55.54-1.01.3-1.5.43-.97.23-1.45.31c-.48.08-.94.15-1.39.21s-.9.1-1.33.14-.86.05-1.27.06-.82,0-1.21-.02c-.4-.02-.78-.05-1.16-.09s-.75-.09-1.11-.14-.71-.13-1.06-.2-.68-.16-1.01-.26c-.33-.1-.64-.2-.95-.3s-.6-.21-.88-.31-.56-.22-.82-.33-.51-.23-.75-.34l-3.86-1.88m34.87-11.58l-13.99-6.53c-.09-.04-.18-.07-.27-.1s-.19-.05-.3-.07-.21-.03-.33-.04-.23-.01-.36-.01-.24,0-.36.01-.23.02-.33.04-.21.04-.31.07-.2.06-.29.1l-38.91,16.55c-.1.04-.18.08-.26.13s-.14.09-.19.14-.1.1-.13.16-.05.11-.06.17c0,.06,0,.11.01.17s.04.11.08.16.09.1.15.14.13.09.22.13l13.95,6.88c.67.33,1.36.64,2.05.93s1.41.57,2.14.82,1.47.49,2.23.71,1.53.41,2.31.59c.78.18,1.58.34,2.39.48s1.63.26,2.46.36,1.67.18,2.52.24,1.72.1,2.59.12c.96.02,1.91.01,2.86-.02s1.89-.09,2.83-.17,1.87-.18,2.79-.31,1.85-.28,2.76-.46c.91-.18,1.82-.38,2.71-.6s1.77-.47,2.64-.74,1.72-.56,2.56-.88,1.67-.66,2.49-1.02,1.58-.73,2.29-1.11,1.37-.75,1.98-1.14,1.16-.77,1.67-1.17.95-.79,1.35-1.2c.4-.41.75-.81,1.05-1.22s.54-.82.74-1.24.34-.84.43-1.26.14-.85.13-1.28c-.02-.79-.21-1.56-.57-2.31s-.88-1.48-1.58-2.19-1.55-1.4-2.58-2.07-2.21-1.32-3.57-1.95"/>
    <path class="cls-1" d="m253.98,88.78l-27.74-12.94c-.09-.04-.18-.08-.28-.11s-.2-.06-.31-.08-.22-.04-.34-.05-.24-.02-.37-.02c-.13,0-.25,0-.37.02s-.23.03-.34.05-.21.05-.31.08-.2.07-.29.11l-38.99,17.47c-.1.04-.18.09-.26.14s-.14.1-.19.15-.09.11-.12.16-.05.12-.05.18c0,.06,0,.12.02.18s.05.11.09.16.1.1.16.15.14.09.23.14l27.71,13.65c.09.05.19.09.29.12s.21.06.32.08.23.04.35.05.25.02.38.02c.13,0,.26,0,.39-.02s.25-.03.36-.05.23-.05.33-.08.21-.07.31-.12l8.04-3.75c.1-.04.18-.09.25-.14s.13-.1.18-.16.09-.11.11-.17.04-.12.04-.18c0-.06,0-.12-.03-.18s-.05-.11-.1-.17-.1-.11-.17-.15-.15-.1-.24-.14l-17.06-8.29c-.09-.04-.17-.09-.24-.14s-.12-.1-.17-.15-.08-.11-.1-.16-.03-.12-.02-.18c0-.06.02-.12.05-.18s.07-.11.12-.16.11-.1.19-.15.16-.09.26-.14l2.18-.99c.1-.04.2-.08.3-.12s.21-.06.33-.08.23-.04.35-.05.25-.02.38-.02c.13,0,.26,0,.38.02s.24.03.35.05.22.05.32.08.2.07.29.11l14.85,7.17c.09.04.19.08.29.12s.21.06.32.08.23.04.35.05.25.02.38.02c.13,0,.26,0,.38-.02s.24-.03.36-.05.22-.05.33-.08.21-.07.3-.12l7.87-3.66c.09-.04.18-.09.25-.14s.13-.1.18-.15.08-.11.11-.17.04-.12.04-.18c0-.06-.01-.12-.03-.18s-.06-.11-.1-.16-.1-.1-.17-.15-.15-.09-.24-.14l-14.85-7.07c-.09-.04-.17-.09-.24-.14s-.12-.1-.17-.15-.08-.11-.1-.16-.03-.11-.03-.17c0-.06.02-.12.04-.17s.06-.11.11-.16.11-.1.18-.15.15-.09.25-.13l2.37-1.08c.09-.04.19-.08.29-.11s.21-.06.32-.08.23-.04.35-.05.24-.02.37-.02.25,0,.37.02.23.03.34.05.21.05.31.08.2.07.29.11l17.07,8.07c.09.04.19.08.29.11s.21.06.32.08.23.04.35.05.25.02.38.02c.13,0,.26,0,.38-.02s.24-.03.35-.05.22-.05.32-.08.2-.07.29-.11l7.61-3.55c.09-.04.17-.09.24-.14s.13-.1.17-.15.08-.11.1-.16.03-.11.03-.18-.01-.12-.03-.18-.06-.11-.1-.16-.1-.1-.17-.15-.15-.09-.24-.14"/>
    <path class="cls-1" d="m304.66,112.43l-9.77-4.56c-.1-.05-.2-.09-.31-.12s-.23-.07-.35-.1-.26-.05-.4-.08-.28-.04-.44-.05-.3-.02-.45-.03-.29,0-.43,0-.28,0-.42.02-.27.02-.4.04l-32.83,6.22c-.13.02-.26.03-.38.04s-.23,0-.34,0-.2-.03-.29-.05-.18-.05-.25-.09-.14-.08-.19-.12-.08-.09-.1-.14-.02-.11-.01-.16.03-.12.07-.18l12.63-15.64c.04-.06.06-.12.08-.19s.03-.13.03-.2,0-.13-.02-.2-.04-.14-.06-.21c-.03-.07-.07-.14-.11-.2s-.1-.12-.16-.18-.13-.11-.21-.16-.16-.1-.26-.14l-9.17-4.28c-.12-.06-.24-.1-.37-.14s-.25-.07-.37-.08-.25-.03-.37-.03-.25.01-.38.03c-.13.02-.24.05-.35.08s-.21.07-.3.12-.17.1-.24.15-.14.12-.19.19l-21.79,26.6c-.04.07-.07.13-.1.2s-.04.14-.04.21,0,.14,0,.21.03.15.06.22c.03.08.06.15.11.22s.1.13.16.19.13.12.21.17.16.1.26.15l7.66,3.77c.1.05.2.09.31.13s.23.07.35.1.26.06.4.08.29.04.44.05c.15.01.31.03.46.03s.3,0,.44,0,.29,0,.43-.02.28-.03.42-.04l56.96-10.65c.11-.02.22-.04.31-.07s.17-.06.24-.1.13-.09.18-.14.09-.11.12-.17c.03-.06.04-.12.04-.18s-.03-.12-.07-.17-.1-.11-.17-.17-.17-.11-.27-.16"/>
    <path class="cls-1" d="m355.39,136.11l-10.4-4.86c-.1-.05-.21-.09-.33-.13s-.24-.07-.37-.11-.27-.06-.41-.08-.3-.04-.46-.06c-.16-.01-.31-.02-.47-.03s-.3,0-.45,0-.29,0-.43.02-.28.03-.41.05l-33.44,6.63c-.14.02-.27.03-.39.04s-.24,0-.35,0-.21-.03-.31-.05-.19-.06-.27-.1-.15-.08-.2-.13-.09-.1-.11-.15-.03-.11-.03-.17.03-.13.06-.2l11.95-16.65c.03-.07.06-.13.07-.2s.02-.14.02-.21-.01-.14-.03-.21-.05-.15-.08-.22-.08-.15-.13-.21-.11-.13-.18-.19-.14-.12-.23-.17-.18-.1-.28-.15l-9.75-4.55c-.13-.06-.26-.11-.38-.15s-.26-.07-.38-.09-.26-.03-.38-.03-.26.01-.38.03c-.13.02-.25.05-.36.08s-.21.07-.3.12-.17.1-.24.16-.13.13-.19.2l-20.66,28.32c-.04.07-.07.14-.09.21s-.03.15-.03.22,0,.15.02.23.04.16.07.23c.03.08.07.16.12.23s.11.14.18.21.14.13.23.18.18.11.28.16l8.17,4.02c.1.05.21.1.33.14s.24.08.37.11.27.06.42.08.3.04.46.06c.16.02.32.03.47.03s.31,0,.46,0,.3,0,.44-.02.29-.03.43-.05l58.04-11.36c.11-.02.22-.05.31-.08s.17-.07.25-.11.13-.09.18-.15.09-.12.11-.18c.02-.07.03-.13.02-.19s-.04-.12-.08-.18-.11-.12-.19-.18-.18-.11-.29-.17"/>
    <path class="cls-1" d="m377.1,145.68c-.52-.24-1.05-.48-1.6-.71s-1.11-.46-1.69-.68-1.17-.44-1.79-.65-1.24-.42-1.88-.62c-.64-.2-1.29-.39-1.95-.56s-1.31-.33-1.98-.46-1.33-.26-2.01-.37-1.35-.2-2.04-.27c-.68-.07-1.37-.13-2.06-.16s-1.38-.05-2.08-.04-1.39.04-2.09.08-1.4.12-2.1.21c-.7.09-1.4.21-2.09.36s-1.37.34-2.04.55-1.34.47-2,.75-1.31.59-1.96.94c-.44.24-.85.47-1.22.71s-.71.48-1.02.72-.58.48-.82.73-.45.49-.62.74c-.17.25-.32.49-.44.74s-.22.5-.3.74-.13.5-.16.74-.03.5-.02.75c.02.25.05.5.11.74s.13.49.23.74.21.49.35.73.29.48.46.72c.17.24.35.47.54.71s.38.46.59.69.41.45.63.67.44.44.68.65c.23.21.46.42.7.63s.48.41.73.61.5.39.76.58.52.38.78.56c.26.18.52.36.77.53s.49.34.72.49.46.31.67.46.42.29.62.42c.2.15.4.29.61.43s.41.28.61.42.41.28.62.41.42.27.62.4c.21.13.41.26.6.39s.37.25.54.37.33.24.48.36.29.23.43.35c.13.11.25.22.36.33s.2.21.29.31.16.2.22.3.11.19.15.29c.04.09.05.18.05.27s-.03.17-.07.25-.11.16-.19.23-.19.15-.31.21c-.24.13-.5.24-.77.33s-.56.15-.87.19-.63.05-.96.04-.69-.04-1.06-.1c-.37-.06-.76-.13-1.16-.23s-.81-.22-1.23-.37-.86-.31-1.31-.5-.91-.4-1.39-.63c-.5-.24-.98-.5-1.45-.78s-.92-.57-1.36-.88-.86-.64-1.27-.99-.8-.71-1.18-1.09c-.38-.38-.74-.77-1.09-1.17s-.67-.81-.98-1.23-.6-.85-.88-1.29-.53-.89-.78-1.35c-.03-.05-.06-.09-.1-.14s-.08-.09-.13-.13-.1-.08-.16-.12-.13-.07-.2-.11c-.03-.01-.06-.03-.09-.04s-.06-.03-.09-.04-.07-.03-.1-.04-.07-.02-.1-.04c-.13-.04-.25-.08-.38-.1s-.26-.05-.39-.07-.27-.02-.4-.03-.28,0-.42.01l-11.3,1.05c-.14,0-.28.03-.4.05s-.25.05-.37.09-.22.08-.33.12-.2.1-.29.16c-.09.06-.17.12-.23.18s-.11.13-.14.19-.05.13-.05.2.01.14.04.21c.07.26.15.53.25.8s.2.54.31.81.24.55.38.82.29.56.44.84c.15.28.32.56.51.84s.38.56.6.85.44.57.68.85.5.57.77.85c.27.28.56.57.86.85s.62.57.96.85.69.57,1.06.85.75.57,1.16.85c.4.28.82.57,1.26.85s.9.56,1.39.85.99.56,1.51.84,1.07.56,1.63.84c.69.34,1.39.67,2.09.98s1.4.6,2.1.88,1.4.54,2.11.78,1.41.47,2.12.68c.71.21,1.41.4,2.11.57s1.4.32,2.1.45,1.39.24,2.08.34,1.38.16,2.06.22c.68.05,1.37.08,2.04.09s1.35,0,2.02-.04,1.34-.09,2-.17,1.32-.18,1.97-.3c.65-.12,1.29-.27,1.93-.44s1.25-.37,1.87-.59,1.22-.47,1.81-.74,1.18-.57,1.75-.89c.61-.34,1.16-.69,1.65-1.04s.91-.7,1.28-1.05.67-.71.91-1.06.42-.72.54-1.08c.12-.36.21-.72.26-1.07s.06-.71.04-1.06-.08-.69-.17-1.04-.22-.68-.38-1.02c-.16-.34-.35-.67-.56-.99s-.44-.65-.69-.96-.53-.63-.82-.93-.62-.61-.96-.9c-.34-.29-.69-.58-1.02-.85s-.67-.54-1.01-.8-.66-.51-.99-.75-.66-.47-.98-.69c-.07-.04-.15-.1-.26-.17s-.24-.15-.38-.25-.32-.21-.5-.33-.4-.26-.62-.41c-.23-.15-.46-.31-.68-.47s-.45-.32-.67-.49-.44-.34-.66-.51-.44-.35-.65-.53-.42-.36-.61-.53-.37-.35-.54-.52-.33-.34-.47-.51-.28-.33-.4-.5c-.12-.16-.21-.32-.27-.46s-.09-.27-.08-.39.04-.22.11-.32.17-.18.3-.25.27-.13.41-.19.28-.1.43-.13.3-.06.46-.07.32-.02.48-.02c.17,0,.33,0,.5.02s.34.03.51.06.34.06.51.09.34.08.52.13c.17.05.34.1.51.15s.34.11.5.17.33.12.49.19.33.13.49.2c.16.07.32.14.47.21s.3.13.44.2.28.13.41.19.25.12.37.17c.4.19.79.39,1.18.61s.77.44,1.14.69.75.5,1.11.77.72.55,1.08.85c.35.3.69.61,1.02.94s.65.68.95,1.04.6.74.88,1.14.55.81.81,1.24c.02.05.05.11.09.16s.08.1.13.14.11.09.17.13.14.08.21.12c.03.01.05.02.08.04s.06.02.08.03.06.02.09.03.06.02.09.03c.13.04.26.08.39.11s.26.05.4.07.27.03.41.03.28,0,.41-.01l11.35-1.03c.14,0,.27-.03.4-.05s.24-.05.35-.08.21-.07.31-.12.18-.1.26-.15c.08-.06.15-.12.21-.18s.1-.13.13-.19.05-.14.05-.21,0-.15-.03-.23c-.24-.56-.51-1.11-.82-1.64s-.64-1.06-1.01-1.57-.77-1.01-1.21-1.5-.9-.96-1.41-1.43c-.5-.46-1.05-.92-1.66-1.38s-1.25-.9-1.96-1.34-1.46-.88-2.26-1.31-1.66-.86-2.57-1.28"/>
  </g>
  <polygon class="cls-2" points="260.73 262.53 259.65 556.09 40.38 387.61 4.46 114.57 260.73 262.53"/>
  <g>
    <path class="cls-1" d="m50.74,275.02c-.08-.06-.16-.12-.24-.19s-.15-.15-.23-.23-.15-.18-.22-.27-.14-.2-.2-.32c-.07-.11-.13-.23-.18-.34s-.1-.22-.14-.33-.07-.22-.1-.33-.04-.22-.06-.32l-.89-7.58c-.01-.11-.02-.21-.02-.3s.01-.17.03-.24.04-.14.08-.19.07-.1.12-.14c.05-.04.1-.06.16-.08s.12-.02.18,0,.14.03.21.06.15.08.23.13l4.64,3.11c.17.12.34.24.51.37s.33.27.48.41.31.29.46.45.3.32.44.49c.14.17.28.34.41.52s.26.35.38.53.24.36.36.55.23.37.33.57c.11.19.21.38.3.57s.19.38.27.58.16.39.24.58.14.39.21.59c.06.2.12.39.18.58s.1.38.14.56.08.37.11.54.06.35.07.52c.04.33.06.64.06.94s-.02.56-.06.81-.1.48-.17.68-.17.39-.29.55c-.11.16-.25.28-.42.35s-.35.09-.57.07-.45-.09-.71-.21-.55-.28-.86-.49l-5.26-3.56m2.67-19.18l-15.01-9.94c-.08-.05-.16-.1-.23-.13s-.14-.05-.21-.06-.12,0-.18.01-.11.04-.15.08c-.05.04-.09.09-.12.14s-.06.12-.07.2-.03.16-.03.25,0,.19.02.3l5.36,43.71c.01.1.03.21.06.31s.06.21.1.32.08.22.13.32.11.22.17.33c.06.11.13.21.2.31s.14.19.21.27.14.16.22.23.15.13.23.18l7.17,4.98c.08.06.16.1.23.13s.14.06.2.07.12.01.18,0,.11-.03.15-.07c.05-.04.09-.08.12-.13s.06-.11.07-.18.03-.15.03-.23,0-.18-.01-.29l-1.1-9.37c-.01-.11-.02-.2-.01-.29s.01-.17.03-.24.04-.13.08-.18.07-.1.12-.13c.05-.03.1-.06.16-.07s.12-.01.18,0,.13.03.21.07.15.08.23.13l4.23,2.9c.59.41,1.17.78,1.72,1.1s1.08.62,1.59.87,1,.46,1.46.63.91.3,1.34.39c.42.09.83.15,1.21.17s.75.02,1.09-.02.67-.11.97-.22.58-.25.84-.42c.26-.17.5-.38.72-.61s.42-.5.6-.79.34-.62.47-.98.25-.75.35-1.17c.09-.42.17-.86.22-1.33s.09-.96.1-1.47,0-1.05-.02-1.61-.07-1.14-.13-1.75-.15-1.22-.26-1.84-.24-1.24-.39-1.88-.32-1.27-.52-1.92-.41-1.3-.65-1.95c-.24-.65-.49-1.3-.75-1.95s-.55-1.28-.84-1.92-.6-1.26-.92-1.88-.66-1.24-1.01-1.85c-.35-.61-.71-1.21-1.08-1.79s-.76-1.15-1.15-1.71-.8-1.1-1.22-1.63-.84-1.05-1.28-1.55c-.44-.5-.88-.98-1.32-1.44s-.89-.88-1.34-1.29-.9-.79-1.36-1.14-.92-.69-1.38-.99"/>
    <path class="cls-1" d="m103.72,289.16l-7.97-5.28c-.1-.06-.19-.12-.27-.15s-.16-.06-.24-.07-.14-.01-.2,0-.12.04-.17.08c-.05.04-.09.09-.13.14s-.06.12-.08.2-.03.16-.04.25,0,.2,0,.31l1.45,15.66c.01.11.01.21,0,.3s-.02.17-.04.24-.05.14-.09.19-.08.1-.14.13c-.05.03-.11.06-.18.07s-.13.01-.2,0-.14-.03-.22-.07-.16-.08-.24-.14l-10.62-7.17c-.09-.06-.18-.13-.27-.21s-.17-.16-.25-.25-.15-.18-.22-.28-.14-.21-.2-.32c-.06-.11-.12-.23-.17-.34s-.09-.22-.13-.33-.07-.22-.09-.33-.04-.22-.05-.33l-1.55-15.59c-.01-.11-.03-.22-.05-.33s-.06-.23-.1-.34-.09-.23-.14-.34-.12-.23-.18-.35c-.07-.12-.14-.23-.21-.33s-.15-.2-.23-.28-.16-.17-.24-.24-.17-.14-.25-.19l-7.69-5.09c-.09-.06-.18-.11-.26-.15s-.16-.06-.23-.07-.14,0-.2,0-.11.04-.16.08-.09.09-.12.15-.06.13-.08.2-.03.16-.03.25,0,.2.01.31l4.64,44.24c.01.1.03.21.05.32s.05.21.09.32.08.22.13.33.1.22.17.33c.06.11.13.22.2.31s.14.19.22.28.16.17.24.24.17.15.26.21l7.5,5.21c.08.06.17.11.24.14s.15.06.22.07.13.02.19,0,.12-.03.17-.06c.05-.03.1-.08.13-.13s.06-.11.09-.18.03-.15.04-.23,0-.18,0-.29l-1.36-13.64c-.01-.11-.01-.2-.01-.29s.01-.17.03-.24.04-.14.08-.19.07-.1.12-.14c.05-.04.1-.06.16-.07s.12-.01.19,0,.15.04.23.08.17.09.26.15l10.55,7.21c.08.06.17.12.25.2s.16.15.24.24.15.18.22.28.14.21.21.33c.07.12.13.23.18.35s.1.23.14.34.07.22.09.33.04.22.05.33l1.27,13.7c0,.11.03.21.05.32s.05.22.09.32.08.22.13.33.11.22.17.34c.06.11.13.22.2.32s.14.19.22.28.16.17.25.25.18.15.27.21l7.77,5.4c.09.06.17.11.25.15s.15.06.22.08.14.02.2,0,.12-.03.18-.06c.05-.03.1-.08.14-.13s.07-.11.09-.18.04-.15.05-.23,0-.18,0-.29l-3.87-44.73c0-.11-.03-.22-.05-.34s-.06-.23-.1-.35-.09-.23-.14-.35-.12-.24-.18-.36-.14-.23-.21-.33-.15-.2-.23-.29-.16-.17-.25-.25-.17-.14-.26-.2"/>
    <path class="cls-1" d="m134.61,344.71c-.34-.23-.67-.48-1-.75s-.66-.55-.98-.85-.64-.62-.96-.96-.63-.69-.94-1.07c-.31-.37-.61-.75-.91-1.14s-.58-.78-.86-1.19-.54-.81-.8-1.23-.51-.84-.75-1.28c-.24-.43-.48-.87-.7-1.31s-.43-.88-.63-1.33-.39-.89-.56-1.34-.34-.9-.5-1.36c-.15-.46-.29-.91-.42-1.35s-.23-.89-.33-1.32-.17-.87-.24-1.29-.11-.85-.14-1.27-.05-.8-.05-1.17.02-.74.05-1.09.08-.69.15-1.01.15-.63.24-.92c.1-.3.21-.57.33-.82s.26-.49.41-.7.31-.41.49-.58.37-.32.57-.46c.2-.13.41-.25.64-.34s.46-.16.7-.22.5-.08.77-.09.55,0,.84.03c.29.03.58.09.89.17s.61.19.93.32.64.28.97.46.66.38,1,.61.68.48,1.01.74.67.55,1,.85.66.62.98.96.65.7.96,1.08c.32.38.63.76.93,1.16s.59.8.88,1.21.56.83.83,1.25.53.86.78,1.3c.25.44.49.88.72,1.33s.44.9.65,1.35.39.91.57,1.38.35.93.5,1.4c.16.47.3.93.42,1.39s.23.9.32,1.34.17.87.22,1.29.1.84.13,1.25.04.82.03,1.21-.03.75-.07,1.1-.09.69-.17,1-.16.62-.27.9c-.11.28-.22.55-.35.79s-.28.47-.43.67-.33.39-.51.56-.38.31-.59.44c-.21.13-.43.23-.66.31s-.47.15-.72.19-.51.07-.78.07-.55-.02-.84-.06c-.29-.04-.59-.1-.89-.19s-.61-.2-.92-.33-.63-.29-.96-.48-.66-.39-.99-.62m-2.71-37.74c-.72-.48-1.43-.91-2.13-1.28s-1.37-.71-2.04-.99-1.32-.51-1.95-.69-1.26-.31-1.86-.39c-.61-.08-1.19-.12-1.75-.11s-1.09.06-1.6.15-1,.23-1.46.41-.9.41-1.32.67c-.41.27-.8.58-1.17.92s-.7.73-1.01,1.16-.59.89-.85,1.39-.49,1.05-.69,1.63c-.21.58-.38,1.2-.51,1.85s-.24,1.33-.3,2.05-.1,1.47-.1,2.25.04,1.6.11,2.46.17,1.71.31,2.58.3,1.75.5,2.64.43,1.79.69,2.7.56,1.83.89,2.75c.33.93.67,1.85,1.04,2.76s.76,1.81,1.17,2.71.85,1.78,1.3,2.66.93,1.75,1.43,2.62c.5.86,1.01,1.71,1.55,2.55s1.08,1.65,1.65,2.46,1.15,1.6,1.76,2.37,1.23,1.54,1.87,2.28c.64.75,1.29,1.46,1.95,2.15s1.32,1.33,1.99,1.95,1.35,1.2,2.04,1.76,1.38,1.08,2.09,1.56,1.4.93,2.08,1.33,1.35.75,2.01,1.05,1.3.56,1.93.77,1.25.37,1.86.49c.61.12,1.2.19,1.77.22s1.11.02,1.64-.03,1.03-.15,1.51-.29.95-.33,1.39-.55.86-.5,1.25-.81.76-.66,1.09-1.06.65-.83.94-1.31.55-1,.78-1.56c.23-.56.43-1.16.6-1.8s.29-1.31.39-2.02.15-1.46.17-2.25,0-1.61-.05-2.47-.14-1.74-.26-2.63-.28-1.79-.47-2.7-.42-1.84-.68-2.78-.56-1.89-.89-2.85c-.33-.96-.69-1.92-1.07-2.87s-.78-1.89-1.21-2.83-.88-1.86-1.35-2.78-.97-1.83-1.5-2.74c-.52-.9-1.06-1.79-1.62-2.66s-1.14-1.73-1.74-2.56-1.21-1.66-1.85-2.46-1.29-1.59-1.96-2.36c-.67-.77-1.35-1.5-2.03-2.2s-1.37-1.36-2.07-1.98-1.4-1.21-2.11-1.76-1.43-1.07-2.15-1.55"/>
    <path class="cls-1" d="m186.89,344.22l-31.04-20.55c-.1-.06-.19-.12-.28-.16s-.17-.07-.25-.08-.15-.02-.22,0-.14.03-.2.07c-.06.03-.12.08-.16.13s-.08.12-.11.19-.05.16-.06.25-.01.2,0,.31l.54,9.23c0,.11.02.23.04.34s.05.23.09.35.09.24.14.36.12.24.19.37.14.24.22.34.16.21.24.3.17.18.26.26.18.15.28.22l8.16,5.47c.11.07.21.15.3.23s.19.17.27.27.17.2.24.31.15.22.22.35c.07.12.13.24.18.36s.1.24.13.35.07.23.09.35.04.23.04.34l1.74,33.04c0,.11.02.22.04.33s.05.22.09.34.08.23.14.35.12.24.19.36c.07.12.14.23.22.34s.16.21.24.3.17.18.26.26.18.15.27.22l8.58,5.96c.11.07.21.13.3.18s.18.08.26.1.16.03.23.02.14-.02.2-.05c.06-.03.11-.08.15-.13s.08-.11.1-.18.05-.15.06-.24.01-.19,0-.3l-1.53-33.15c0-.11,0-.22.01-.31s.03-.18.06-.25.07-.14.12-.19.1-.09.17-.13c.06-.03.13-.06.21-.07s.15,0,.23.01.17.04.26.09.18.09.28.16l8.3,5.57c.11.07.21.13.31.18s.19.08.27.1.17.02.24.02.14-.03.2-.07c.06-.04.11-.08.16-.14s.08-.12.11-.2.05-.16.06-.25.02-.2.01-.31l-.37-9.32c0-.11-.02-.23-.04-.35s-.05-.24-.09-.36-.08-.24-.13-.36-.11-.24-.18-.37c-.07-.12-.14-.24-.22-.35s-.16-.21-.25-.31-.18-.19-.28-.28-.2-.16-.32-.24"/>
    <path class="cls-1" d="m214.18,399.36c-.38-.26-.75-.53-1.11-.83s-.73-.6-1.08-.93-.71-.68-1.05-1.04-.69-.75-1.03-1.15c-.34-.4-.67-.81-.98-1.22s-.62-.84-.92-1.26-.58-.86-.86-1.31-.54-.89-.79-1.35c-.26-.46-.5-.92-.73-1.38s-.45-.93-.65-1.39-.39-.93-.57-1.4-.34-.94-.5-1.42c-.15-.47-.29-.94-.4-1.4s-.22-.92-.3-1.37-.15-.89-.2-1.33-.08-.87-.09-1.3,0-.81.01-1.2.06-.75.12-1.11.13-.69.23-1.02.2-.63.33-.93c.13-.29.27-.57.43-.82s.33-.48.51-.69.38-.39.6-.56.44-.31.68-.43c.24-.12.49-.22.75-.3s.54-.14.82-.17.58-.05.89-.05.63.03.97.08c.33.05.67.13,1.01.23s.7.23,1.05.38.72.33,1.09.54.74.43,1.13.69.76.53,1.13.82.74.6,1.1.93.72.68,1.08,1.05.7.75,1.05,1.16c.35.41.68.82,1.01,1.24s.64.85.95,1.29.6.88.89,1.33.56.91.83,1.37c.26.46.52.93.75,1.4s.46.94.67,1.42.4.96.59,1.44.35.97.5,1.46c.15.49.29.97.4,1.44s.21.93.29,1.39.14.9.19,1.33.07.86.08,1.28,0,.84-.03,1.23-.08.76-.14,1.12-.15.69-.25,1.01-.22.62-.36.9c-.14.28-.29.54-.46.78s-.35.46-.54.66-.4.37-.62.53-.46.29-.71.41c-.25.11-.51.2-.79.27s-.55.12-.85.15-.6.03-.91.02-.64-.06-.97-.12c-.33-.06-.67-.14-1.01-.25s-.69-.24-1.05-.4-.71-.34-1.08-.55-.73-.44-1.11-.7m-.96-38.6c-.81-.53-1.6-1.02-2.38-1.45s-1.55-.81-2.3-1.14-1.49-.6-2.22-.83-1.43-.4-2.13-.52c-.7-.12-1.37-.2-2.01-.23s-1.26-.01-1.86.05-1.16.17-1.71.33-1.06.35-1.56.6-.96.53-1.4.86-.85.7-1.23,1.11-.74.87-1.06,1.37-.62,1.03-.89,1.62c-.27.58-.5,1.19-.7,1.85s-.35,1.34-.47,2.07-.2,1.49-.24,2.29-.05,1.63-.01,2.51.1,1.75.21,2.65.25,1.8.43,2.72.4,1.85.65,2.79.54,1.89.87,2.86c.32.96.67,1.92,1.05,2.87s.77,1.89,1.2,2.83.87,1.87,1.35,2.79.97,1.84,1.5,2.76c.52.91,1.07,1.81,1.64,2.69s1.16,1.75,1.76,2.61,1.24,1.7,1.89,2.53,1.33,1.65,2.03,2.45c.7.8,1.41,1.58,2.12,2.32s1.45,1.45,2.19,2.12,1.49,1.32,2.25,1.93,1.54,1.19,2.32,1.73,1.56,1.04,2.32,1.49,1.52.85,2.26,1.21,1.47.66,2.19.92,1.43.47,2.12.62c.7.16,1.37.28,2.03.35s1.29.1,1.9.08,1.2-.08,1.77-.19,1.11-.27,1.64-.47c.52-.2,1.02-.45,1.49-.73s.91-.62,1.33-1,.8-.8,1.16-1.26.69-.98,1-1.53c.3-.56.57-1.15.8-1.79s.42-1.31.56-2.03.26-1.48.33-2.27.1-1.64.09-2.52-.06-1.78-.15-2.69-.22-1.84-.38-2.78-.38-1.9-.62-2.87-.53-1.96-.86-2.96c-.33-1-.68-2-1.07-2.99s-.8-1.98-1.24-2.96-.91-1.96-1.41-2.93-1.02-1.93-1.57-2.89-1.13-1.9-1.73-2.82-1.22-1.84-1.86-2.73-1.31-1.77-1.99-2.63-1.4-1.71-2.13-2.53c-.73-.83-1.47-1.62-2.22-2.37s-1.51-1.47-2.28-2.16-1.55-1.33-2.34-1.94-1.59-1.18-2.4-1.72"/>
  </g>
</svg>